<?xml version="1.0" encoding="UTF-8" standalone="no"?>
<svg
   xmlns:dc="http://purl.org/dc/elements/1.1/"
   xmlns:cc="http://creativecommons.org/ns#"
   xmlns:rdf="http://www.w3.org/1999/02/22-rdf-syntax-ns#"
   xmlns:svg="http://www.w3.org/2000/svg"
   xmlns="http://www.w3.org/2000/svg"
   xmlns:sodipodi="http://sodipodi.sourceforge.net/DTD/sodipodi-0.dtd"
   xmlns:inkscape="http://www.inkscape.org/namespaces/inkscape"
   height="287.60001"
   width="802.70001"
   xml:space="preserve"
   enable-background="new 0 0 639 524.6"
   viewBox="0 0 802.70001 287.60002"
   y="0px"
   x="0px"
   id="logo"
   version="1.1"
   sodipodi:docname="redg-logo.svg"
   inkscape:version="0.92.1 r15371"><metadata
     id="metadata13"><rdf:RDF><cc:Work
         rdf:about=""><dc:format>image/svg+xml</dc:format><dc:type
           rdf:resource="http://purl.org/dc/dcmitype/StillImage" /><dc:title /></cc:Work></rdf:RDF></metadata><sodipodi:namedview
     pagecolor="#ffffff"
     bordercolor="#666666"
     borderopacity="1"
     objecttolerance="10"
     gridtolerance="10"
     guidetolerance="10"
     inkscape:pageopacity="0"
     inkscape:pageshadow="2"
     inkscape:window-width="1920"
     inkscape:window-height="1138"
     id="namedview11"
     showgrid="false"
     inkscape:zoom="1.1604812"
     inkscape:cx="127.57274"
     inkscape:cy="176.61882"
     inkscape:window-x="1912"
     inkscape:window-y="32"
     inkscape:window-maximized="1"
     inkscape:current-layer="logo" /><defs
     id="defs99" /><g
     transform="translate(-180.1,-41.699664)"
     id="g94"><g
       id="g92"><path
         id="path82"
         d="m 322.18164,43.710938 c -50.00671,0.09907 -98.67685,29.370069 -122.58201,73.639622 -25.50996,45.41935 -22.89249,104.35025 6.75975,147.38772 26.51883,40.00992 74.66367,64.57854 122.28268,62.48342 51.0742,-1.08884 99.97401,-32.72161 122.40482,-78.84475 19.93881,-39.31468 19.57873,-88.16529 -1.14649,-127.40234 C 426.69825,73.438542 375.04794,42.445149 322.18164,43.710938 Z m 1.71875,11.089843 c 58.73353,0.627499 100.1473,42.048015 114.15705,67.225589 -16.39693,-0.15278 -33.00479,0.18685 -48.48908,-0.62989 -27.09951,-29.199956 -73.27134,-36.044884 -108.01875,-17.43446 -18.92435,9.76237 -33.89918,26.29043 -42.39336,45.81337 -7.47839,-12.9666 -14.95751,-25.93276 -22.4375,-38.89844 23.91723,-34.639771 64.99979,-56.436501 107.18164,-56.076169 z m 0,49.599609 c 35.63239,-0.61116 69.41196,25.31523 78.19103,59.82462 9.41375,32.85997 -4.91307,70.56872 -33.77036,88.89526 -29.15877,19.86192 -71.12614,17.04827 -97.39333,-6.49722 -26.52514,-22.21863 -35.60615,-62.19399 -21.24582,-93.67795 12.38255,-29.01085 42.63731,-48.91563 74.21848,-48.54471 z m -112.16992,19.99805 c 7.59773,13.12561 15.19489,26.25155 22.79297,39.37695 -9.29685,35.88536 6.14209,76.41219 37.01125,97.22993 18.53331,13.0221 41.79113,18.48493 64.06687,15.70366 -8.12552,12.93848 -16.24985,25.8777 -24.375,38.81641 -47.00697,-3.9947 -90.0722,-35.90028 -107.96679,-79.48828 -15.64633,-36.59958 -12.97852,-80.20096 6.64453,-114.79492 0.60872,1.05208 1.21744,2.10416 1.82617,3.15625 z M 402.40039,131 h 40.81836 c 18.54851,40.18113 14.69569,89.608 -10.14453,126.27539 -23.65664,36.28586 -66.10412,59.2682 -109.46094,58.94531 9.23048,-14.14009 17.62819,-29.35295 27.37891,-42.82617 38.21539,-11.18438 66.05455,-49.60644 64.99754,-89.3144 C 415.91113,165.35044 409.57677,146.63567 398.74219,131 Z"
         style="fill:#c6050e;fill-opacity:1"
         inkscape:connector-curvature="0"
         sodipodi:nodetypes="cccccccccccccccccccccccccccccccccccc" /><g
         transform="matrix(0.9263499,0,0,0.9263499,27.398971,13.480832)"
         id="g90"><ellipse
           style="fill:#c6050e;fill-opacity:1"
           id="ellipse88"
           ry="24.5"
           rx="41.799999"
           cy="147.2"
           cx="319.79999" /><path
           id="rect4580"
           d="m 278.14967,164.26032 v 20.5844 a 41.799999,24.5 0 0 0 41.64952,22.97113 41.799999,24.5 0 0 0 41.52513,-22.16783 v -20.62657 a 41.799999,24.5 0 0 1 -41.52513,21.79253 41.799999,24.5 0 0 1 -41.64952,-22.55366 z"
           style="opacity:0.98000004;fill:#c6050e;fill-opacity:1;stroke:none;stroke-width:5.14320993;stroke-linecap:round;stroke-linejoin:round;stroke-miterlimit:4;stroke-dasharray:none;stroke-opacity:0.06422017"
           inkscape:connector-curvature="0" /><path
           style="opacity:0.98000004;fill:#c6050e;fill-opacity:1;stroke:none;stroke-width:5.14320993;stroke-linecap:round;stroke-linejoin:round;stroke-miterlimit:4;stroke-dasharray:none;stroke-opacity:0.06422017"
           d="m 278.14967,199.90475 v 20.5844 a 41.799999,24.5 0 0 0 41.64952,22.97113 41.799999,24.5 0 0 0 41.52513,-22.16783 v -20.62657 a 41.799999,24.5 0 0 1 -41.52513,21.79253 41.799999,24.5 0 0 1 -41.64952,-22.55366 z"
           id="path4628"
           inkscape:connector-curvature="0" /></g></g></g><text
     xml:space="preserve"
     style="font-style:normal;font-variant:normal;font-weight:normal;font-stretch:normal;font-size:40px;line-height:125%;font-family:Roboto;-inkscape-font-specification:Roboto;letter-spacing:0px;word-spacing:0px;fill:#000000;fill-opacity:1;stroke:none;stroke-width:1px;stroke-linecap:butt;stroke-linejoin:miter;stroke-opacity:1"
     x="314.13052"
     y="214.8625"
     id="text4492"><tspan
       sodipodi:role="line"
       id="tspan4490"
       x="314.13052"
       y="214.8625"
       style="font-size:192px">RedG</tspan></text>
</svg>