<svg xmlns="http://www.w3.org/2000/svg" height="287.6" width="802.7" viewBox="0 0 802.70001 287.60002" id="logo">
  <g fill="#c6050e">
    <path d="M142.082 2.01C92.075 2.11 43.405 31.38 19.5 75.65-6.01 121.07-3.393 180 26.26 223.04c26.518 40.01 74.663 64.577 122.282 62.482 51.074-1.09 99.974-32.722 122.405-78.845 19.94-39.314 19.58-88.165-1.147-127.402C246.598 31.74 194.948.745 142.082 2.01zM143.8 13.1c58.734.63 100.148 42.05 114.157 67.227-16.396-.153-33.004.187-48.49-.63-27.098-29.2-73.27-36.045-108.017-17.435-18.925 9.763-33.9 26.29-42.394 45.814C51.578 95.11 44.1 82.143 36.62 69.176c23.916-34.638 65-56.435 107.18-56.075zm0 49.6c35.633-.61 69.412 25.316 78.19 59.825 9.415 32.86-4.912 70.57-33.77 88.896-29.158 19.863-71.125 17.05-97.392-6.497-26.525-22.218-35.606-62.194-21.246-93.678C81.964 82.235 112.22 62.33 143.8 62.7zm-112.17 20l22.793 39.376c-9.296 35.885 6.143 76.412 37.012 97.23 18.533 13.022 41.79 18.485 64.067 15.703-8.126 12.938-16.25 25.877-24.375 38.816-47.007-3.995-90.073-35.9-107.967-79.49-15.647-36.598-12.98-80.2 6.644-114.793.61 1.052 1.218 2.104 1.826 3.156zm190.67 6.6h40.82c18.547 40.18 14.694 89.608-10.146 126.276-23.656 36.286-66.104 59.268-109.46 58.945 9.23-14.14 17.627-29.352 27.378-42.825 38.216-11.185 66.055-49.607 64.998-89.315-.08-18.73-6.413-37.444-17.248-53.08z"/>
    <g transform="matrix(.92635 0 0 .92635 -152.7 -28.22)">
      <ellipse ry="24.5" rx="41.8" cy="147.2" cx="319.8"/>
      <path d="M278.15 164.26v20.585a41.8 24.5 0 0 0 41.65 22.97 41.8 24.5 0 0 0 41.524-22.167V165.02a41.8 24.5 0 0 1-41.525 21.794 41.8 24.5 0 0 1-41.65-22.554z" opacity=".98"/>
      <path d="M278.15 199.905v20.584a41.8 24.5 0 0 0 41.65 22.97 41.8 24.5 0 0 0 41.524-22.168v-20.626a41.8 24.5 0 0 1-41.525 21.792 41.8 24.5 0 0 1-41.65-22.553z" opacity=".98"/>
    </g>
  </g>
  <text style="line-height:125%;" x="314.131" y="214.863" font-size="40" font-family="Roboto" letter-spacing="0" word-spacing="0">
    <tspan x="314.131" y="214.863" font-size="192">RedG</tspan>
  </text>
</svg>
